# xmcd
#
# Track frame offsets:
#	150
#	20531
#	34806
#	49426
#	70177
#	92027
#	109444
#	126696
#	140503
#	157173
#	167370
#
# Disc length: 2515 seconds
#
# Revision: 0
# Processed by: cddbd v1.5.2PL0 Copyright (c) Steve Scherf et al.
# Submitted via: FairStars CD Ripper 1.90
#
DISCID=a309d10b
DTITLE=West of Eden - Another Celtic Christmas
DYEAR=2016
DGENRE=Celtic
TTITLE0=Awake awake
TTITLE1=My Sweet December love
TTITLE2=Logs to burn
TTITLE3=Fairytale of New York
TTITLE4=Winter's reign
TTITLE5=Walking in the air
TTITLE6=Tekla's tune
TTITLE7=The Holly and the Ivy
TTITLE8=This Christmas (will be better)
TTITLE9=New Year's Prayer
TTITLE10=Soul Cake (live recordniong)
EXTD=
EXTT0=
EXTT1=
EXTT2=
EXTT3=
EXTT4=
EXTT5=
EXTT6=
EXTT7=
EXTT8=
EXTT9=
EXTT10=
PLAYORDER=
